<svg xmlns="http://www.w3.org/2000/svg" version="1.1" xmlns:xlink="http://www.w3.org/1999/xlink" width="1500" height="1500" viewBox="0 0 1500 1500"><rect width="1500" height="1500" x="0" y="0" id="background" stroke="transparent" fill="#f4f2f2"></rect><svg xml:space="preserve" width="1000" height="1000" data-version="2" data-id="lg_GmqgjDwMZswQbJqc2K" viewBox="0 0 471 407" x="250" y="250"><rect width="100%" height="100%" fill="transparent"></rect><path fill="#4962bf" d="M14.295 120.39q.68 0 3.08-.05 2.4-.04 5.37-.04 2.98 0 5.95-.05 2.98-.05 4.9-.05 11.14 0 16.94 4.42 5.81 4.41 5.81 12.48 0 4.7-2.59 8.44-2.59 3.75-7.2 6.05 5.76 2.21 8.78 6.24 3.03 4.03 3.03 9.31 0 8.26-6.24 13.3-6.24 5.04-18.91 5.04h-5.57q-2.98 0-5.67-.05-2.68-.05-4.75-.05h-2.93Zm11.43 56.83h8.25q6.53 0 9.36-2.92 2.84-2.93 2.84-7.35 0-2.01-.63-3.93-.62-1.92-2.16-3.46-1.53-1.54-4.08-2.45-2.54-.91-6.38-.91h-4.08q-1.78 0-3.12.1Zm0-29.18h7.39q6.05 0 8.64-2.78 2.59-2.79 2.59-6.82 0-1.82-.57-3.65-.58-1.82-1.97-3.26-1.39-1.44-3.75-2.31-2.35-.86-5.9-.86h-3.7q-1.58 0-2.73.1Z"></path><rect width="44.07" height="65.28" x="-22.04" y="-32.64" fill="none" rx="0" ry="0" transform="translate(36.83 153.34)"></rect><path fill="#4962bf" d="M94.555 119.53q7.2 0 12.29 2.3 5.09 2.31 8.4 6.53 3.31 4.22 4.85 10.32 1.53 6.1 1.53 13.68 0 7.49-1.68 13.68-1.68 6.19-5.18 10.61-3.51 4.41-8.83 6.86-5.33 2.45-12.63 2.45-7.2 0-12.33-2.16-5.14-2.16-8.45-6.34-3.31-4.17-4.85-10.12-1.54-5.96-1.54-13.64 0-7.48 1.68-13.77 1.68-6.29 5.19-10.85 3.5-4.56 8.88-7.06 5.37-2.49 12.67-2.49m-1.34 8.83q-4.23 0-7.01 1.87-2.79 1.87-4.51 5.14-1.73 3.26-2.45 7.68-.72 4.41-.72 9.6 0 4.89.67 9.31.67 4.42 2.45 7.78 1.77 3.36 4.89 5.37 3.12 2.02 8.12 2.02 4.12 0 6.96-1.83 2.83-1.82 4.56-4.99 1.72-3.17 2.44-7.53.72-4.37.72-9.46 0-4.9-.67-9.41t-2.45-7.97q-1.77-3.45-4.89-5.52-3.12-2.06-8.11-2.06"></path><rect width="55.49" height="66.43" x="-27.75" y="-33.22" fill="none" rx="0" ry="0" transform="translate(94.38 153.25)"></rect><path fill="#4962bf" d="m169.335 120.39-1.44 8.64h-16.12v56.35h-11.33v-56.35h-16.42v-8.64Z"></path><rect width="45.31" height="64.99" x="-22.66" y="-32.49" fill="none" rx="0" ry="0" transform="translate(147.18 153.38)"></rect><path fill="#4962bf" d="M215.325 155.82h-26.79v29.56h-11.42v-64.99h11.42v27.07h26.79v-27.07h11.42v64.99h-11.42Z"></path><rect width="49.63" height="64.99" x="-24.82" y="-32.49" fill="none" rx="0" ry="0" transform="translate(202.43 153.38)"></rect><path fill="#4962bf" d="M277.725 145.93q-1.44-3.94-2.31-7.68-.48 1.82-.91 3.65-.43 1.82-1.1 4.03l-12.48 39.45h-8.45l-18.05-64.99h11.43l8.44 32.55q2.21 8.44 3.17 13.63.67-2.69 1.59-5.95.91-3.27 2.25-7.49l10.18-32.74h8.54l10.18 32.74q1.34 4.32 2.3 7.87.96 3.55 1.54 6.24.38-2.69 1.1-6.24.72-3.55 1.87-7.87l8.45-32.74h11.62l-18.05 64.99h-8.45Z"></path><rect width="82.66" height="64.99" x="-41.33" y="-32.49" fill="none" rx="0" ry="0" transform="translate(276.25 153.38)"></rect><path fill="#4962bf" d="M337.535 120.39h9.02l25.06 64.99h-12.2l-5.95-16.99h-23.42l-6.15 16.99h-11.32Zm12.96 39.55q-3.08-8.64-5.28-15.69-2.21-7.06-3.36-11.09-1.35 4.32-3.56 11.33-2.2 7.01-5.18 15.45Z"></path><rect width="59.04" height="64.99" x="-29.52" y="-32.49" fill="none" rx="0" ry="0" transform="translate(342.6 153.38)"></rect><path fill="#4962bf" d="m384.575 160.52-20.16-40.13h12.38l13.63 29.47 13.92-29.47h12.1L395.995 161v24.38h-11.42Z"></path><rect width="52.03" height="64.99" x="-26.02" y="-32.49" fill="none" rx="0" ry="0" transform="translate(390.93 153.38)"></rect><path fill="#4962bf" d="M439.005 119.53q3.36 0 6.43.62 3.07.63 5.62 1.44 2.54.82 4.32 1.68 1.77.87 2.44 1.35l-4.7 8.25-1.25-.67q-1.25-.67-3.26-1.54-2.02-.86-4.42-1.53t-4.61-.67q-3.45 0-6 1.63-2.54 1.63-2.54 5.09 0 4.32 2.78 7.05 2.79 2.74 8.74 5.04 3.84 1.54 6.86 3.22 3.03 1.68 5.14 3.89 2.11 2.2 3.22 5.08 1.1 2.88 1.1 6.92 0 3.64-1.39 7.2-1.39 3.55-4.13 6.28-2.74 2.74-6.77 4.42-4.03 1.68-9.31 1.68-3.74 0-7.1-.77-3.36-.77-6.1-1.77-2.74-1.01-4.7-2.07-1.97-1.05-2.93-1.63l4.03-8.83 1.73.96q1.73.96 4.22 2.11 2.5 1.15 5.28 2.11 2.79.96 4.8.96 5.09 0 7.59-2.49 2.49-2.5 2.49-7.01 0-2.11-.67-3.7-.67-1.58-1.92-2.73-1.25-1.16-3.02-2.07-1.78-.91-3.99-1.77-4.32-1.83-7.73-3.65-3.4-1.83-5.8-4.18-2.4-2.35-3.65-5.37-1.25-3.03-1.25-7.25 0-3.55 1.54-6.67 1.53-3.12 4.22-5.48 2.69-2.35 6.43-3.74 3.75-1.39 8.26-1.39"></path><rect width="42.43" height="66.43" x="-21.21" y="-33.22" fill="none" rx="0" ry="0" transform="translate(438.16 153.25)"></rect><path fill="#4962bf" d="M4.695 216.94h38.6v8.64h-27.17v18.14h22.37l-1.44 8.74h-20.93v20.83h28.61v8.64H4.695Z"></path><rect width="40.04" height="64.99" x="-20.02" y="-32.49" fill="none" rx="0" ry="0" transform="translate(25.21 249.94)"></rect><path fill="#4962bf" d="M53.945 216.94q.67 0 2.88-.05t4.99-.05q2.79 0 5.76-.04 2.98-.05 5.19-.05 16.32 0 24.19 8.11 7.87 8.11 7.87 24.14 0 16.04-8.06 24.58-8.07 8.54-25.25 8.54-2.98 0-5.81-.04-2.83-.05-5.18-.05-2.35 0-4.08-.05t-2.5-.05Zm17.47 8.35q-2.2 0-3.69.05-1.49.05-2.35.05v48.09q1.05.1 2.73.1h4.85q10.08 0 14.78-5.9 4.71-5.91 4.71-17.62 0-5.57-1.11-10.13-1.1-4.56-3.64-7.82-2.55-3.27-6.53-5.04-3.99-1.78-9.75-1.78"></path><rect width="50.88" height="65.37" x="-25.44" y="-32.69" fill="none" rx="0" ry="0" transform="translate(79.89 249.94)"></rect><path fill="#4962bf" d="M126.045 216.94v40.22q0 8.93 3.74 12.72 3.75 3.8 10.18 3.8 6.53 0 9.65-4.37t3.12-12.15v-40.22h11.42v41.09q0 4.99-1.3 9.41-1.29 4.41-4.27 7.77-2.97 3.36-7.87 5.33-4.9 1.97-12 1.97-6.82 0-11.38-1.97-4.56-1.97-7.39-5.33-2.83-3.36-4.03-7.77-1.2-4.42-1.2-9.41v-41.09Z"></path><rect width="49.44" height="65.57" x="-24.72" y="-32.78" fill="none" rx="0" ry="0" transform="translate(139.94 250.22)"></rect><path fill="#4962bf" d="M212.345 230q-2.3-2.5-4.85-3.8-2.54-1.29-5.9-1.29-4.13 0-6.96 1.87t-4.56 5.18q-1.73 3.32-2.5 7.73-.76 4.42-.76 9.51 0 5.08.72 9.5t2.49 7.78q1.78 3.36 4.8 5.28 3.03 1.92 7.63 1.92 2.21 0 4.23-.39 2.01-.38 3.69-.81 1.68-.44 2.79-.82l1.39-.48 2.69 8.06-1.25.48q-1.25.48-3.5 1.11-2.26.62-5.38 1.15-3.12.53-6.86.53-12.87 0-19.35-8.21-6.48-8.21-6.48-24.05 0-7.58 1.73-13.87 1.73-6.29 5.23-10.8 3.51-4.51 8.83-7.01 5.33-2.49 12.53-2.49 5.76 0 9.46 2.11 3.69 2.11 6 4.8Z"></path><rect width="43.78" height="66.43" x="-21.89" y="-33.22" fill="none" rx="0" ry="0" transform="translate(196.81 249.8)"></rect><path fill="#4962bf" d="M244.605 216.94h9.02l25.06 64.99h-12.19l-5.96-16.99h-23.42l-6.14 16.99h-11.33Zm12.96 39.55q-3.07-8.64-5.28-15.69-2.21-7.06-3.36-11.09-1.35 4.32-3.55 11.33-2.21 7-5.19 15.45Z"></path><rect width="59.04" height="64.99" x="-29.52" y="-32.49" fill="none" rx="0" ry="0" transform="translate(249.66 249.94)"></rect><path fill="#4962bf" d="m318.715 216.94-1.44 8.64h-16.13v56.35h-11.33v-56.35h-16.41v-8.64Z"></path><rect width="45.31" height="64.99" x="-22.66" y="-32.49" fill="none" rx="0" ry="0" transform="translate(296.56 249.94)"></rect><path fill="#4962bf" d="M326.495 216.94h11.42v64.99h-11.42Z"></path><rect width="11.42" height="64.99" x="-5.71" y="-32.49" fill="none" rx="0" ry="0" transform="translate(332.7 249.94)"></rect><path fill="#4962bf" d="M377.375 216.08q7.2 0 12.28 2.3 5.09 2.3 8.4 6.53 3.32 4.22 4.85 10.32 1.54 6.09 1.54 13.68 0 7.49-1.68 13.68-1.68 6.19-5.19 10.61-3.5 4.41-8.83 6.86t-12.62 2.45q-7.2 0-12.34-2.16-5.13-2.16-8.45-6.34-3.31-4.17-4.84-10.13-1.54-5.95-1.54-13.63 0-7.49 1.68-13.77 1.68-6.29 5.18-10.85 3.51-4.56 8.88-7.06 5.38-2.49 12.68-2.49m-1.35 8.83q-4.22 0-7.01 1.87-2.78 1.87-4.51 5.14-1.73 3.26-2.45 7.68-.72 4.41-.72 9.6 0 4.89.68 9.31.67 4.41 2.44 7.77 1.78 3.36 4.9 5.38t8.11 2.02q4.13 0 6.96-1.83 2.83-1.82 4.56-4.99 1.73-3.17 2.45-7.54.72-4.36.72-9.45 0-4.9-.67-9.41t-2.45-7.97q-1.78-3.45-4.9-5.52-3.12-2.06-8.11-2.06"></path><rect width="55.49" height="66.43" x="-27.75" y="-33.22" fill="none" rx="0" ry="0" transform="translate(377.2 249.8)"></rect><path fill="#4962bf" d="M453.885 216.94h11.42v65.09h-9.5l-21.89-34.18q-1.82-2.78-3.98-6.29-2.16-3.5-4.08-6.48.28 3.08.52 6.44.24 3.36.24 6.43l.29 33.98h-11.42v-65.18h8.93l22.56 33.79q1.92 2.78 3.88 5.9 1.97 3.12 3.89 6-.19-3.07-.38-6.19-.19-3.12-.19-5.33Z"></path><rect width="49.82" height="65.28" x="-24.91" y="-32.64" fill="none" rx="0" ry="0" transform="translate(440.9 249.89)"></rect><path fill="#4962bf" d="M98.418 66.939c36.478-36.479 84.97-56.568 136.561-56.568 51.591 0 100.083 20.09 136.562 56.568a195.288 195.288 0 0 1 24.44 29.787h7.86a201.056 201.056 0 0 0-27.636-34.451c-37.723-37.723-87.88-58.496-141.226-58.496-53.345 0-103.502 20.773-141.225 58.496a201.056 201.056 0 0 0-27.637 34.451h7.861a195.288 195.288 0 0 1 24.44-29.787M371.54 340.062c-36.479 36.478-84.971 56.567-136.562 56.567-51.59 0-100.083-20.089-136.561-56.567a195.288 195.288 0 0 1-24.44-29.788h-7.861a201.056 201.056 0 0 0 27.637 34.451c37.723 37.723 87.88 58.496 141.225 58.496 53.346 0 103.503-20.773 141.226-58.496a201.056 201.056 0 0 0 27.637-34.451h-7.861a195.288 195.288 0 0 1-24.44 29.788"></path></svg></svg>