<?xml version="1.0" encoding="utf-8"?>
<!-- Generator: Adobe Illustrator 27.5.0, SVG Export Plug-In . SVG Version: 6.00 Build 0)  -->
<svg version="1.1" id="Layer_1" xmlns="http://www.w3.org/2000/svg" xmlns:xlink="http://www.w3.org/1999/xlink" x="0px" y="0px"
	 viewBox="0 0 1000 1000" style="enable-background:new 0 0 1000 1000;" xml:space="preserve">
<rect style="fill:#FFFFFF;" width="1000" height="1000"/>
<g>
	<g>
		<g>
			<g>
				<path style="fill:#FFFFFF;" d="M621.412,219.998V720.49c0,7.297-5.945,13.243-13.242,13.243H297.119
					c-5.54,0-10.81-0.811-15.809-2.432c-1.621-0.541-3.378-1.216-4.999-1.892c-0.135,0.135-0.135,0.135-0.135,0
					c-12.972-5.54-23.241-15.809-28.781-28.781c-0.135,0-0.135,0,0-0.135c-0.675-1.621-1.352-3.378-1.892-4.999
					c-1.621-4.999-2.432-10.269-2.432-15.809V250.806c0-24.323,19.728-44.05,44.05-44.05h321.05
					C615.467,206.756,621.412,212.702,621.412,219.998z"/>
				<path d="M608.17,740.488H297.119c-6.235,0-12.252-0.924-17.893-2.758c-0.455-0.158-0.924-0.317-1.386-0.475l-8.406-3.563
					c-11.328-5.846-20.479-14.99-26.325-26.312h-0.231l-3.556-8.353l0.191-0.185c-0.145-0.409-0.284-0.818-0.416-1.214
					c-1.854-5.7-2.784-11.731-2.784-17.946V250.803c0-28.014,22.795-50.803,50.809-50.803H608.17
					c11.025,0,19.998,8.973,19.998,20.004v500.479C628.168,731.515,619.195,740.488,608.17,740.488z M277.22,722.463l1.722,0.713
					c1.458,0.62,3.042,1.227,4.506,1.715c4.236,1.386,8.854,2.085,13.671,2.085H608.17c3.576,0,6.486-2.916,6.486-6.492V220.004
					c0-3.576-2.91-6.492-6.486-6.492H287.123c-20.565,0-37.297,16.732-37.297,37.291v428.881c0,4.803,0.706,9.422,2.105,13.723
					c0.475,1.425,1.089,3.022,1.702,4.5l0.693,1.676C259.083,709.677,267.119,717.713,277.22,722.463z"/>
			</g>
			<g>
				<path style="fill:#FFFFFF;" d="M330.9,206.756v472.927H243.07V250.806c0-24.323,19.728-44.05,44.05-44.05H330.9z"/>
				<path d="M337.656,686.439H236.314V250.803c0-28.014,22.795-50.803,50.809-50.803h50.532V686.439z M249.826,672.927h74.317
					V213.512h-37.02c-20.565,0-37.297,16.732-37.297,37.291V672.927z"/>
			</g>
			<g>
				<path style="fill:#FFFFFF;" d="M621.412,635.634v84.856c0,7.297-5.945,13.243-13.242,13.243H297.119
					c-5.54,0-10.81-0.811-15.809-2.432c-1.621-0.541-3.378-1.216-4.999-1.892c-0.135,0.135-0.135,0.135-0.135,0
					c-12.972-5.405-23.377-15.809-28.781-28.781c-0.135,0-0.135,0,0-0.135c-0.675-1.621-1.352-3.378-1.892-4.999
					c-1.621-4.999-2.432-10.269-2.432-15.809v-0.406c0.135-14.728,6.216-28.105,15.809-37.834
					c9.864-9.728,23.377-15.809,38.24-15.809h314.294C616.953,625.635,621.412,630.093,621.412,635.634z"/>
				<path d="M608.17,740.488H297.119c-6.235,0-12.252-0.924-17.893-2.758c-0.455-0.158-0.924-0.317-1.386-0.475l-8.406-3.536
					c-11.269-5.753-20.585-15.056-26.351-26.338h-0.205l-3.556-8.353l0.191-0.185c-0.145-0.409-0.284-0.818-0.416-1.214
					c-1.854-5.7-2.784-11.731-2.784-17.946c0.152-16.428,6.453-31.537,17.755-42.991c11.678-11.506,26.945-17.814,43.05-17.814
					h314.297c9.237,0,16.752,7.521,16.752,16.758v84.847C628.168,731.515,619.195,740.488,608.17,740.488z M276.864,722.318
					l2.078,0.858c1.458,0.62,3.042,1.227,4.506,1.715c4.236,1.386,8.854,2.085,13.671,2.085H608.17c3.576,0,6.486-2.916,6.486-6.492
					v-84.847c0-1.821-1.425-3.246-3.24-3.246H297.119c-12.536,0-24.431,4.922-33.497,13.869
					c-8.755,8.867-13.677,20.651-13.796,33.081c0,5.146,0.706,9.765,2.105,14.066c0.475,1.425,1.089,3.022,1.702,4.5l0.825,1.993
					C259.076,709.69,267.086,717.713,276.864,722.318z"/>
			</g>
		</g>
		<g>
			<path d="M621.412,686.585H319.828c-3.734,0-6.756-3.022-6.756-6.756c0-3.734,3.022-6.756,6.756-6.756h301.583
				c3.734,0,6.756,3.022,6.756,6.756C628.168,683.563,625.146,686.585,621.412,686.585z"/>
		</g>
		<g>
			<rect x="404.461" y="265.922" style="fill:#FFFFFF;" width="142.671" height="52.243"/>
			<path d="M553.891,324.922H397.702v-65.753h156.189V324.922z M411.214,311.41h129.164v-38.729H411.214V311.41z"/>
		</g>
		<g>
			<polygon style="fill:#FFFFFF;" points="418.445,679.827 418.445,793.244 457.688,754.001 496.931,793.244 496.931,679.827 			"/>
			<path d="M496.932,800c-1.755,0-3.484-0.686-4.777-1.979l-34.467-34.467l-34.467,34.467c-1.94,1.94-4.843,2.494-7.363,1.465
				c-2.527-1.042-4.17-3.51-4.17-6.241V679.828c0-3.734,3.022-6.756,6.756-6.756h78.487c3.734,0,6.756,3.022,6.756,6.756v113.415
				c0,2.731-1.643,5.199-4.17,6.241C498.68,799.828,497.803,800,496.932,800z M457.689,747.244c1.729,0,3.457,0.66,4.777,1.979
				l27.711,27.711v-90.35h-64.975v90.35l27.711-27.711C454.231,747.904,455.96,747.244,457.689,747.244z"/>
		</g>
	</g>
	<g>
		<g>
			<path style="fill:#FFFFFF;" d="M756.93,459.612c0,17.146-20.842,30.025-27.025,44.936c-6.409,15.456-1.02,39.243-12.668,50.89
				c-11.648,11.647-35.434,6.258-50.889,12.667c-14.91,6.183-27.789,27.025-44.935,27.025c-17.146,0-30.025-20.842-44.936-27.025
				c-15.456-6.409-39.243-1.02-50.891-12.668c-11.647-11.648-6.258-35.434-12.667-50.889c-6.183-14.91-27.025-27.789-27.025-44.935
				c0-17.146,20.842-30.025,27.025-44.936c6.409-15.456,1.02-39.243,12.668-50.891c11.648-11.647,35.434-6.258,50.889-12.667
				c14.91-6.183,27.789-27.025,44.935-27.025c17.146,0,30.025,20.842,44.936,27.025c15.456,6.409,39.243,1.02,50.891,12.668
				c11.647,11.648,6.258,35.434,12.667,50.889C736.088,429.587,756.93,442.465,756.93,459.612z"/>
			<path d="M621.412,601.883c-12.767,0-22.973-8.722-31.973-16.428c-5.43-4.645-10.563-9.039-15.558-11.111
				c-5.344-2.217-12.325-2.811-19.721-3.431c-12.153-1.016-24.722-2.072-33.352-10.702s-9.686-21.192-10.702-33.345
				c-0.62-7.39-1.207-14.37-3.431-19.727c-2.065-4.988-6.459-10.121-11.111-15.557c-7.7-8.999-16.428-19.199-16.428-31.973
				c0-12.76,8.729-22.96,16.422-31.96c4.658-5.437,9.052-10.57,11.117-15.557c2.223-5.357,2.811-12.338,3.431-19.727
				c1.016-12.153,2.072-24.728,10.702-33.358c8.636-8.63,21.199-9.686,33.345-10.702c7.396-0.62,14.383-1.214,19.727-3.431
				c4.995-2.072,10.134-6.466,15.571-11.111c8.999-7.706,19.193-16.428,31.96-16.428s22.96,8.722,31.96,16.428
				c5.437,4.645,10.576,9.039,15.564,11.111c5.351,2.217,12.338,2.811,19.734,3.431c12.153,1.016,24.715,2.072,33.345,10.702
				c8.63,8.63,9.685,21.205,10.708,33.358c0.62,7.403,1.207,14.383,3.424,19.727c2.065,4.988,6.459,10.121,11.117,15.557
				c7.693,8.999,16.422,19.199,16.422,31.96c0,12.773-8.729,22.973-16.428,31.973c-4.651,5.437-9.045,10.57-11.111,15.557
				c-2.223,5.357-2.811,12.338-3.431,19.727c-1.016,12.153-2.072,24.728-10.702,33.345c-8.63,8.63-21.199,9.685-33.352,10.702
				c-7.396,0.62-14.377,1.214-19.721,3.431c-4.995,2.072-10.128,6.466-15.557,11.111
				C644.385,593.16,634.179,601.883,621.412,601.883z M621.412,330.847c-7.772,0-15.254,6.4-23.178,13.182
				c-5.997,5.133-12.199,10.438-19.173,13.327c-7.291,3.022-15.67,3.734-23.772,4.407c-10.18,0.858-19.793,1.663-24.926,6.796
				s-5.938,14.753-6.796,24.926c-0.68,8.102-1.379,16.481-4.407,23.778c-2.89,6.967-8.201,13.169-13.327,19.173
				c-6.783,7.917-13.182,15.399-13.182,23.171c0,7.785,6.406,15.267,13.182,23.185c5.133,6.004,10.438,12.206,13.327,19.173
				c3.028,7.297,3.728,15.663,4.407,23.765c0.858,10.174,1.663,19.793,6.796,24.926s14.746,5.938,24.926,6.796
				c8.102,0.673,16.481,1.386,23.778,4.407c6.961,2.89,13.163,8.194,19.16,13.327c7.924,6.782,15.406,13.182,23.185,13.182
				s15.261-6.4,23.185-13.182c5.997-5.133,12.199-10.438,19.16-13.327c7.297-3.022,15.676-3.734,23.778-4.407
				c10.174-0.858,19.787-1.663,24.926-6.796c5.133-5.133,5.938-14.739,6.796-24.913c0.68-8.102,1.379-16.481,4.407-23.778
				c2.89-6.967,8.194-13.169,13.327-19.173c6.776-7.917,13.182-15.399,13.182-23.185c0-7.772-6.4-15.254-13.182-23.171
				c-5.126-6.004-10.438-12.206-13.327-19.173c-3.022-7.297-3.728-15.663-4.407-23.765c-0.858-10.187-1.663-19.806-6.796-24.94
				s-14.746-5.938-24.92-6.796c-8.109-0.673-16.488-1.386-23.785-4.407c-6.967-2.89-13.169-8.194-19.167-13.327
				C636.666,337.247,629.184,330.847,621.412,330.847z"/>
		</g>
		<g>
			<g>
				<path style="fill:#FFFFFF;" d="M621.731,376.946c11.686,0,19.699,14.473,9.247,41.006c-4.623,11.458,4.02,16.483,28.544,15.679
					c24.523-0.804,33.368-3.417,28.343,36.986s-5.427,48.645-25.528,48.645c-23.92,0.603-36.383,0-55.881,0
					c-19.498,0-19.297-7.839-19.297-26.734s0-59.298,0-67.741s11.86-25.528,16.684-34.574
					C608.666,381.167,615.701,376.946,621.731,376.946z"/>
				<path d="M641.568,526.285c-6.037,0-11.526-0.066-17.095-0.132c-5.681-0.066-11.447-0.132-18.018-0.132
					c-8.056,0-17.926-1.082-22.756-9.567c-3.299-5.78-3.299-13.156-3.299-23.356v-68.313c0-7.587,5.628-17.629,12.984-29.98
					c1.735-2.916,3.332-5.582,4.5-7.772c5.615-10.543,14.528-16.837,23.844-16.837c6.565,0,12.483,3.154,16.23,8.669
					c6.406,9.408,6.156,24.161-0.693,41.566c-0.825,2.032-0.792,3.101-0.647,3.299c0.106,0.158,2.844,3.761,22.677,3.141
					l3.774-0.132c11.784-0.462,21.067-0.818,27.242,5.925c5.832,6.347,6.987,16.864,4.256,38.782l-0.435,3.536
					c-4.605,37.145-6.327,51.04-31.795,51.04C654.401,526.219,647.697,526.285,641.568,526.285z M621.729,383.708
					c-3.121,0-8.115,2.534-11.922,9.685c-1.254,2.349-2.956,5.212-4.816,8.326c-4.143,6.954-11.078,18.592-11.078,23.066v67.746
					c0,8.076,0,14.555,1.524,17.233c0.389,0.686,1.564,2.745,11.018,2.745c6.624,0,12.443,0.066,18.177,0.132
					c11.084,0.132,21.819,0.264,37.541-0.132c12.925,0,13.69,0,18.546-39.191l0.442-3.536c1.973-15.848,1.696-25.256-0.805-27.988
					c-1.946-2.124-8.815-1.874-16.771-1.557l-3.84,0.145c-18.903,0.607-29.459-2.124-34.203-8.907
					c-2.111-3.035-3.972-8.274-0.831-16.059c7.409-18.804,3.464-26.906,2.078-28.951
					C625.529,384.605,623.873,383.708,621.729,383.708z"/>
			</g>
			<g>
				<path style="fill:#FFFFFF;" d="M558.857,511.758h23.049c2.9,0,5.251-2.351,5.251-5.251v-73.654c0-2.9-2.351-5.251-5.251-5.251
					h-23.049c-2.9,0-5.251,2.351-5.251,5.251v73.654C553.605,509.407,555.956,511.758,558.857,511.758z"/>
				<path d="M581.905,518.513h-23.046c-6.624,0-12.008-5.384-12.008-12.008v-73.657c0-6.624,5.384-12.008,12.008-12.008h23.046
					c6.624,0,12.008,5.384,12.008,12.008v73.657C593.912,513.13,588.529,518.513,581.905,518.513z M560.363,505.001H580.4v-70.649
					h-20.037V505.001z"/>
			</g>
		</g>
	</g>
</g>
</svg>
